# xmcd
#
# Track frame offsets:
#	150
#	16974
#	34543
#	53461
#	70145
#	88930
#	106840
#	123083
#	139611
#	165010
#	183024
#	202920
#	219246
#
# Disc length: 3260 seconds
#
# Revision: 0
# Processed by: cddbd v1.4PL0 Copyright (c) Steve Scherf et al.
# Submitted via: EasyCDDAExtractor 5.0.5.1
#
DISCID=930cba0d
DTITLE=Lulo - Modernidade
DYEAR=2003
DGENRE=Other
TTITLE0=Modernidade
TTITLE1=Amor De Reclame
TTITLE2=Cartas
TTITLE3=Controle
TTITLE4=Falta Pouco...
TTITLE5=Meio Do Nada
TTITLE6=Deus
TTITLE7=Por Um Triz
TTITLE8=Construção # Deus Lhe Pague
TTITLE9=Tudo Passa
TTITLE10=Odara
TTITLE11=O Trator, O Sol E O Saber
TTITLE12=Ser, Estar
EXTD=
EXTT0=
EXTT1=
EXTT2=
EXTT3=
EXTT4=
EXTT5=
EXTT6=
EXTT7=
EXTT8=
EXTT9=
EXTT10=
EXTT11=
EXTT12=
PLAYORDER=
